<svg xmlns="http://www.w3.org/2000/svg" xmlns:xlink="http://www.w3.org/1999/xlink" width="380" zoomAndPan="magnify" viewBox="0 0 285 101.999999" height="136" preserveAspectRatio="xMidYMid meet" version="1.0"><defs><g/><clipPath id="98f916de96"><path d="M 67 16 L 284.238281 16 L 284.238281 86 L 67 86 Z M 67 16 " clip-rule="nonzero"/></clipPath><clipPath id="aeac832f7f"><path d="M 0.738281 0.601562 L 103 0.601562 L 103 101.851562 L 0.738281 101.851562 Z M 0.738281 0.601562 " clip-rule="nonzero"/></clipPath></defs><g clip-path="url(#98f916de96)"><path fill="#d11329" d="M 249.679688 85.617188 L 67.285156 85.617188 L 67.285156 16.832031 L 249.679688 16.832031 C 268.691406 16.832031 284.105469 32.234375 284.105469 51.226562 C 284.105469 70.214844 268.691406 85.617188 249.679688 85.617188 Z M 249.679688 85.617188 " fill-opacity="1" fill-rule="nonzero"/></g><g clip-path="url(#aeac832f7f)"><path fill="#d11329" d="M 9.675781 79.753906 C 4.117188 71.628906 0.867188 61.804688 0.867188 51.226562 C 0.867188 23.265625 23.558594 0.601562 51.542969 0.601562 C 79.527344 0.601562 102.214844 23.265625 102.214844 51.226562 C 102.214844 79.183594 79.527344 101.851562 51.542969 101.851562 C 43.542969 101.851562 35.976562 99.992188 29.25 96.695312 L 9.480469 96.921875 Z M 9.675781 79.753906 " fill-opacity="1" fill-rule="nonzero"/></g><path fill="#ffffff" d="M 76.460938 53.460938 C 75.980469 52.984375 75.679688 52.308594 75.679688 51.578125 C 75.679688 36.96875 63.785156 25.085938 49.160156 25.085938 C 47.6875 25.085938 46.492188 23.890625 46.492188 22.417969 C 46.492188 20.945312 47.6875 19.75 49.160156 19.75 C 66.730469 19.75 81.015625 34.03125 81.015625 51.578125 C 81.015625 53.050781 79.820312 54.246094 78.347656 54.246094 C 77.617188 54.246094 76.949219 53.949219 76.460938 53.460938 Z M 69.222656 56.078125 C 70.695312 56.078125 71.890625 54.882812 71.890625 53.410156 C 71.890625 39.878906 60.871094 28.867188 47.324219 28.867188 C 45.851562 28.867188 44.65625 30.0625 44.65625 31.535156 C 44.65625 33.007812 45.851562 34.203125 47.324219 34.203125 C 57.921875 34.203125 66.542969 42.8125 66.542969 53.402344 C 66.542969 54.144531 66.847656 54.808594 67.328125 55.289062 C 67.816406 55.785156 68.480469 56.078125 69.222656 56.078125 Z M 59.800781 57.484375 C 61.273438 57.484375 62.46875 56.289062 62.46875 54.816406 C 62.46875 45.699219 55.042969 38.28125 45.917969 38.28125 C 44.445312 38.28125 43.25 39.476562 43.25 40.945312 C 43.25 42.417969 44.445312 43.613281 45.917969 43.613281 C 52.097656 43.613281 57.132812 48.632812 57.132812 54.816406 C 57.132812 55.554688 57.433594 56.222656 57.914062 56.699219 C 58.394531 57.1875 59.070312 57.484375 59.800781 57.484375 Z M 18.457031 45.773438 C 18.429688 46.121094 18.429688 46.464844 18.480469 46.816406 C 18.597656 47.609375 18.75 48.390625 18.910156 49.164062 C 19.054688 49.929688 19.222656 50.679688 19.433594 51.367188 C 21.488281 59.140625 25.671875 66.296875 31.503906 71.867188 C 37.929688 77.996094 46.3125 81.53125 57.148438 82.664062 C 57.308594 82.679688 57.476562 82.691406 57.636719 82.691406 C 57.730469 82.691406 57.8125 82.671875 57.898438 82.664062 C 60.945312 82.773438 66.511719 82.445312 67.714844 82.34375 C 69.390625 82.210938 70.230469 81.082031 70.164062 79.671875 L 69.710938 68.988281 C 69.660156 67.761719 68.605469 66.792969 67.371094 66.84375 L 60.59375 67.136719 C 57.175781 67.28125 54.371094 69.6875 53.546875 72.839844 C 47.019531 71.554688 41.867188 69.039062 37.863281 65.210938 C 34.722656 62.210938 32.179688 58.625 30.367188 54.707031 C 30.367188 54.699219 30.359375 54.691406 30.359375 54.683594 C 32.902344 54.320312 34.871094 52.140625 34.871094 49.507812 L 34.871094 41.417969 C 34.871094 38.53125 32.507812 36.167969 29.621094 36.167969 L 23.480469 36.167969 C 20.59375 36.167969 18.226562 38.53125 18.226562 41.417969 C 18.226562 41.433594 18.226562 43.371094 18.457031 45.773438 Z M 18.457031 45.773438 " fill-opacity="1" fill-rule="nonzero"/><g fill="#ffffff" fill-opacity="1"><g transform="translate(87.993695, 46.878762)"><g><path d="M 8.273438 0.304688 C 13.242188 0.304688 15.855469 -2.332031 15.855469 -9.355469 C 15.855469 -14.660156 13.632812 -17.464844 8.828125 -17.519531 C 4.332031 -17.546875 1.25 -15.132812 1.25 -8.441406 C 1.25 -2.5 3.777344 0.304688 8.273438 0.304688 Z M 13.273438 -9.023438 C 13.273438 -3.777344 11.6875 -1.75 8.386719 -1.777344 C 5.46875 -1.804688 3.804688 -3.804688 3.804688 -8.605469 C 3.804688 -13.6875 5.664062 -15.464844 8.691406 -15.4375 C 11.9375 -15.382812 13.273438 -13.410156 13.273438 -9.023438 Z M 13.273438 -9.023438 "/></g></g></g><g fill="#ffffff" fill-opacity="1"><g transform="translate(105.094933, 46.878762)"><g><path d="M 10.550781 -8.96875 C 12.714844 -9.664062 14.132812 -11.023438 14.132812 -13.4375 C 14.132812 -16.105469 11.964844 -17.519531 8.136719 -17.519531 C 4.109375 -17.492188 1.695312 -15.882812 1.695312 -12.6875 C 1.695312 -10.382812 3.25 -9.164062 5.164062 -8.414062 C 2.832031 -7.800781 1.277344 -6.082031 1.277344 -4 C 1.277344 -1.222656 3.664062 0.304688 7.800781 0.304688 C 11.71875 0.304688 14.714844 -1.195312 14.714844 -4.832031 C 14.714844 -7.246094 12.742188 -8.273438 10.550781 -8.96875 Z M 4.164062 -12.855469 C 4.164062 -14.605469 5.523438 -15.546875 7.941406 -15.546875 C 10.632812 -15.546875 11.71875 -14.714844 11.71875 -12.800781 C 11.71875 -11.660156 11.050781 -10.355469 8.828125 -9.441406 C 6.441406 -10.078125 4.164062 -10.691406 4.164062 -12.855469 Z M 8.105469 -1.664062 C 5.332031 -1.664062 3.691406 -2.664062 3.691406 -4.527344 C 3.691406 -5.914062 4.554688 -6.996094 6.71875 -7.886719 C 6.773438 -7.859375 6.832031 -7.859375 6.886719 -7.828125 C 9.496094 -7.136719 12.273438 -6.773438 12.273438 -4.636719 C 12.273438 -2.609375 10.523438 -1.664062 8.105469 -1.664062 Z M 8.105469 -1.664062 "/></g></g></g><g fill="#ffffff" fill-opacity="1"><g transform="translate(121.057941, 46.878762)"><g><path d="M 8.273438 0.304688 C 13.242188 0.304688 15.855469 -2.332031 15.855469 -9.355469 C 15.855469 -14.660156 13.632812 -17.464844 8.828125 -17.519531 C 4.332031 -17.546875 1.25 -15.132812 1.25 -8.441406 C 1.25 -2.5 3.777344 0.304688 8.273438 0.304688 Z M 13.273438 -9.023438 C 13.273438 -3.777344 11.6875 -1.75 8.386719 -1.777344 C 5.46875 -1.804688 3.804688 -3.804688 3.804688 -8.605469 C 3.804688 -13.6875 5.664062 -15.464844 8.691406 -15.4375 C 11.9375 -15.382812 13.273438 -13.410156 13.273438 -9.023438 Z M 13.273438 -9.023438 "/></g></g></g><g fill="#ffffff" fill-opacity="1"><g transform="translate(138.159178, 46.878762)"><g><path d="M 8.273438 0.304688 C 13.242188 0.304688 15.855469 -2.332031 15.855469 -9.355469 C 15.855469 -14.660156 13.632812 -17.464844 8.828125 -17.519531 C 4.332031 -17.546875 1.25 -15.132812 1.25 -8.441406 C 1.25 -2.5 3.777344 0.304688 8.273438 0.304688 Z M 13.273438 -9.023438 C 13.273438 -3.777344 11.6875 -1.75 8.386719 -1.777344 C 5.46875 -1.804688 3.804688 -3.804688 3.804688 -8.605469 C 3.804688 -13.6875 5.664062 -15.464844 8.691406 -15.4375 C 11.9375 -15.382812 13.273438 -13.410156 13.273438 -9.023438 Z M 13.273438 -9.023438 "/></g></g></g><g fill="#ffffff" fill-opacity="1"><g transform="translate(155.260416, 46.878762)"><g/></g></g><g fill="#ffffff" fill-opacity="1"><g transform="translate(160.618436, 46.878762)"><g><path d="M 13.660156 -2.195312 L 4.191406 -2.109375 C 9.441406 -5.832031 13.050781 -8.914062 13.050781 -12.910156 C 13.050781 -15.992188 11.273438 -17.519531 7.050781 -17.519531 C 4.636719 -17.519531 2.886719 -17.1875 1.386719 -16.601562 C 1.359375 -15.492188 1.359375 -12.300781 1.386719 -11.1875 C 2.082031 -11.132812 2.691406 -11.132812 3.386719 -11.1875 C 3.46875 -12.273438 3.527344 -13.6875 3.554688 -14.992188 C 4.554688 -15.269531 5.523438 -15.382812 6.636719 -15.382812 C 9.164062 -15.382812 10.46875 -14.855469 10.46875 -12.605469 C 10.46875 -8.886719 6.359375 -5.886719 0.945312 -1.972656 C 0.886719 -1.359375 0.859375 -0.636719 0.917969 0 L 13.523438 0 C 13.605469 -0.5 13.6875 -1.609375 13.660156 -2.195312 Z M 13.660156 -2.195312 "/></g></g></g><g fill="#ffffff" fill-opacity="1"><g transform="translate(175.526494, 46.878762)"><g><path d="M 8.273438 0.304688 C 13.242188 0.304688 15.855469 -2.332031 15.855469 -9.355469 C 15.855469 -14.660156 13.632812 -17.464844 8.828125 -17.519531 C 4.332031 -17.546875 1.25 -15.132812 1.25 -8.441406 C 1.25 -2.5 3.777344 0.304688 8.273438 0.304688 Z M 13.273438 -9.023438 C 13.273438 -3.777344 11.6875 -1.75 8.386719 -1.777344 C 5.46875 -1.804688 3.804688 -3.804688 3.804688 -8.605469 C 3.804688 -13.6875 5.664062 -15.464844 8.691406 -15.4375 C 11.9375 -15.382812 13.273438 -13.410156 13.273438 -9.023438 Z M 13.273438 -9.023438 "/></g></g></g><g fill="#ffffff" fill-opacity="1"><g transform="translate(192.627731, 46.878762)"><g><path d="M 8.273438 0.304688 C 13.242188 0.304688 15.855469 -2.332031 15.855469 -9.355469 C 15.855469 -14.660156 13.632812 -17.464844 8.828125 -17.519531 C 4.332031 -17.546875 1.25 -15.132812 1.25 -8.441406 C 1.25 -2.5 3.777344 0.304688 8.273438 0.304688 Z M 13.273438 -9.023438 C 13.273438 -3.777344 11.6875 -1.75 8.386719 -1.777344 C 5.46875 -1.804688 3.804688 -3.804688 3.804688 -8.605469 C 3.804688 -13.6875 5.664062 -15.464844 8.691406 -15.4375 C 11.9375 -15.382812 13.273438 -13.410156 13.273438 -9.023438 Z M 13.273438 -9.023438 "/></g></g></g><g fill="#ffffff" fill-opacity="1"><g transform="translate(209.728968, 46.878762)"><g/></g></g><g fill="#ffffff" fill-opacity="1"><g transform="translate(215.086989, 46.878762)"><g><path d="M 8.273438 0.304688 C 13.242188 0.304688 15.855469 -2.332031 15.855469 -9.355469 C 15.855469 -14.660156 13.632812 -17.464844 8.828125 -17.519531 C 4.332031 -17.546875 1.25 -15.132812 1.25 -8.441406 C 1.25 -2.5 3.777344 0.304688 8.273438 0.304688 Z M 13.273438 -9.023438 C 13.273438 -3.777344 11.6875 -1.75 8.386719 -1.777344 C 5.46875 -1.804688 3.804688 -3.804688 3.804688 -8.605469 C 3.804688 -13.6875 5.664062 -15.464844 8.691406 -15.4375 C 11.9375 -15.382812 13.273438 -13.410156 13.273438 -9.023438 Z M 13.273438 -9.023438 "/></g></g></g><g fill="#ffffff" fill-opacity="1"><g transform="translate(232.188226, 46.878762)"><g><path d="M 8.273438 0.304688 C 13.242188 0.304688 15.855469 -2.332031 15.855469 -9.355469 C 15.855469 -14.660156 13.632812 -17.464844 8.828125 -17.519531 C 4.332031 -17.546875 1.25 -15.132812 1.25 -8.441406 C 1.25 -2.5 3.777344 0.304688 8.273438 0.304688 Z M 13.273438 -9.023438 C 13.273438 -3.777344 11.6875 -1.75 8.386719 -1.777344 C 5.46875 -1.804688 3.804688 -3.804688 3.804688 -8.605469 C 3.804688 -13.6875 5.664062 -15.464844 8.691406 -15.4375 C 11.9375 -15.382812 13.273438 -13.410156 13.273438 -9.023438 Z M 13.273438 -9.023438 "/></g></g></g><g fill="#ffffff" fill-opacity="1"><g transform="translate(249.289464, 46.878762)"><g><path d="M 8.273438 0.304688 C 13.242188 0.304688 15.855469 -2.332031 15.855469 -9.355469 C 15.855469 -14.660156 13.632812 -17.464844 8.828125 -17.519531 C 4.332031 -17.546875 1.25 -15.132812 1.25 -8.441406 C 1.25 -2.5 3.777344 0.304688 8.273438 0.304688 Z M 13.273438 -9.023438 C 13.273438 -3.777344 11.6875 -1.75 8.386719 -1.777344 C 5.46875 -1.804688 3.804688 -3.804688 3.804688 -8.605469 C 3.804688 -13.6875 5.664062 -15.464844 8.691406 -15.4375 C 11.9375 -15.382812 13.273438 -13.410156 13.273438 -9.023438 Z M 13.273438 -9.023438 "/></g></g></g><g fill="#ffffff" fill-opacity="1"><g transform="translate(92.07182, 61.770618)"><g><path d="M 1.097656 -4.894531 C 1.183594 -5.074219 1.246094 -5.769531 1.257812 -6.042969 L 2.609375 -6.023438 L 2.609375 -1.035156 C 2.347656 -1.015625 1.859375 -0.917969 1.734375 -0.855469 L 1.703125 0 L 5.019531 0 L 4.988281 -0.855469 C 4.859375 -0.917969 4.375 -1.015625 4.109375 -1.035156 L 4.109375 -6.023438 L 5.464844 -6.054688 C 5.484375 -5.78125 5.558594 -5.019531 5.621094 -4.894531 L 6.476562 -4.957031 L 6.507812 -7.082031 L 0.210938 -7.082031 L 0.242188 -4.957031 Z M 1.097656 -4.894531 "/></g></g></g><g fill="#ffffff" fill-opacity="1"><g transform="translate(98.776535, 61.770618)"><g><path d="M 2.851562 0 L 2.84375 -0.855469 C 2.714844 -0.917969 2.578125 -0.960938 2.378906 -1.003906 L 2.378906 -3.136719 C 2.558594 -3.371094 2.917969 -3.644531 3.285156 -3.644531 C 3.929688 -3.644531 4.140625 -3.277344 4.140625 -2.746094 L 4.140625 -1.003906 C 3.953125 -0.960938 3.804688 -0.910156 3.667969 -0.855469 L 3.65625 0 L 6.289062 0 L 6.257812 -0.855469 C 6.109375 -0.917969 5.738281 -0.984375 5.496094 -1.003906 L 5.496094 -3.03125 C 5.496094 -4.289062 4.703125 -4.765625 3.773438 -4.765625 C 3.203125 -4.765625 2.664062 -4.375 2.378906 -4.035156 L 2.378906 -6.722656 L 2.453125 -7.777344 L 0.304688 -7.628906 C 0.273438 -7.523438 0.285156 -7.441406 0.285156 -7.34375 C 0.304688 -6.964844 0.613281 -6.6875 1.023438 -6.6875 L 1.023438 -1.003906 C 0.78125 -0.984375 0.414062 -0.917969 0.265625 -0.855469 L 0.234375 0 Z M 2.851562 0 "/></g></g></g><g fill="#ffffff" fill-opacity="1"><g transform="translate(105.270073, 61.770618)"><g><path d="M 2.8125 0.09375 C 3.550781 0.09375 4.015625 0 4.554688 -0.445312 L 4.46875 -1.308594 C 3.953125 -0.972656 3.550781 -0.824219 3.066406 -0.824219 C 2.335938 -0.824219 1.933594 -1.300781 1.859375 -2.113281 L 4.871094 -2.113281 C 4.902344 -2.3125 4.925781 -2.503906 4.925781 -2.683594 C 4.925781 -4.175781 3.773438 -4.765625 2.789062 -4.765625 C 1.257812 -4.765625 0.316406 -3.792969 0.316406 -2.335938 C 0.316406 -0.824219 1.425781 0.09375 2.8125 0.09375 Z M 1.871094 -2.84375 C 1.964844 -3.496094 2.28125 -3.816406 2.789062 -3.816406 C 3.222656 -3.816406 3.550781 -3.457031 3.570312 -2.90625 C 3.117188 -2.894531 2.421875 -2.863281 1.871094 -2.84375 Z M 1.871094 -2.84375 "/></g></g></g><g fill="#ffffff" fill-opacity="1"><g transform="translate(110.454349, 61.770618)"><g/></g></g><g fill="#ffffff" fill-opacity="1"><g transform="translate(112.872268, 61.770618)"><g><path d="M 0.917969 -1.5625 C 0.917969 -0.316406 1.46875 0.105469 2.421875 0.105469 C 2.851562 0.105469 3.296875 0 3.613281 -0.160156 L 3.53125 -1.097656 C 3.328125 -1.003906 3.097656 -0.960938 2.863281 -0.960938 C 2.472656 -0.960938 2.273438 -1.195312 2.273438 -1.660156 L 2.273438 -3.71875 L 3.519531 -3.71875 L 3.519531 -4.640625 L 2.273438 -4.640625 L 2.273438 -5.992188 L 1.277344 -5.800781 L 0.972656 -4.691406 L 0.507812 -4.640625 C 0.160156 -4.597656 0.0859375 -4.3125 0.0859375 -4.070312 C 0.0859375 -3.878906 0.125 -3.71875 0.125 -3.71875 L 0.917969 -3.71875 Z M 0.917969 -1.5625 "/></g></g></g><g fill="#ffffff" fill-opacity="1"><g transform="translate(116.990127, 61.770618)"><g><path d="M 2.8125 0.09375 C 3.550781 0.09375 4.015625 0 4.554688 -0.445312 L 4.46875 -1.308594 C 3.953125 -0.972656 3.550781 -0.824219 3.066406 -0.824219 C 2.335938 -0.824219 1.933594 -1.300781 1.859375 -2.113281 L 4.871094 -2.113281 C 4.902344 -2.3125 4.925781 -2.503906 4.925781 -2.683594 C 4.925781 -4.175781 3.773438 -4.765625 2.789062 -4.765625 C 1.257812 -4.765625 0.316406 -3.792969 0.316406 -2.335938 C 0.316406 -0.824219 1.425781 0.09375 2.8125 0.09375 Z M 1.871094 -2.84375 C 1.964844 -3.496094 2.28125 -3.816406 2.789062 -3.816406 C 3.222656 -3.816406 3.550781 -3.457031 3.570312 -2.90625 C 3.117188 -2.894531 2.421875 -2.863281 1.871094 -2.84375 Z M 1.871094 -2.84375 "/></g></g></g><g fill="#ffffff" fill-opacity="1"><g transform="translate(122.174403, 61.770618)"><g><path d="M 3.171875 0 L 3.136719 -0.855469 C 2.980469 -0.917969 2.609375 -0.984375 2.378906 -1.003906 L 2.378906 -6.722656 L 2.453125 -7.777344 L 0.316406 -7.628906 C 0.296875 -7.523438 0.296875 -7.441406 0.304688 -7.34375 C 0.316406 -6.964844 0.613281 -6.6875 1.023438 -6.6875 L 1.023438 -1.003906 C 0.78125 -0.984375 0.414062 -0.917969 0.265625 -0.855469 L 0.234375 0 Z M 3.171875 0 "/></g></g></g><g fill="#ffffff" fill-opacity="1"><g transform="translate(125.648189, 61.770618)"><g><path d="M 2.8125 0.09375 C 3.550781 0.09375 4.015625 0 4.554688 -0.445312 L 4.46875 -1.308594 C 3.953125 -0.972656 3.550781 -0.824219 3.066406 -0.824219 C 2.335938 -0.824219 1.933594 -1.300781 1.859375 -2.113281 L 4.871094 -2.113281 C 4.902344 -2.3125 4.925781 -2.503906 4.925781 -2.683594 C 4.925781 -4.175781 3.773438 -4.765625 2.789062 -4.765625 C 1.257812 -4.765625 0.316406 -3.792969 0.316406 -2.335938 C 0.316406 -0.824219 1.425781 0.09375 2.8125 0.09375 Z M 1.871094 -2.84375 C 1.964844 -3.496094 2.28125 -3.816406 2.789062 -3.816406 C 3.222656 -3.816406 3.550781 -3.457031 3.570312 -2.90625 C 3.117188 -2.894531 2.421875 -2.863281 1.871094 -2.84375 Z M 1.871094 -2.84375 "/></g></g></g><g fill="#ffffff" fill-opacity="1"><g transform="translate(130.832465, 61.770618)"><g><path d="M 3.160156 2.386719 L 3.128906 1.53125 C 2.980469 1.480469 2.484375 1.40625 2.21875 1.382812 L 2.21875 -0.136719 C 2.566406 0.0429688 2.980469 0.125 3.316406 0.125 C 4.574219 0.125 5.621094 -0.867188 5.621094 -2.398438 C 5.621094 -3.835938 4.734375 -4.753906 3.613281 -4.753906 C 3.042969 -4.753906 2.597656 -4.5 2.21875 -4.140625 L 2.230469 -4.703125 L 0.167969 -4.542969 C 0.148438 -4.449219 0.148438 -4.363281 0.148438 -4.269531 C 0.167969 -3.890625 0.453125 -3.613281 0.867188 -3.613281 L 0.867188 1.382812 C 0.632812 1.40625 0.296875 1.46875 0.148438 1.53125 L 0.117188 2.386719 Z M 3.074219 -3.773438 C 3.65625 -3.773438 4.269531 -3.285156 4.269531 -2.367188 C 4.269531 -1.320312 3.582031 -0.855469 3.03125 -0.855469 C 2.726562 -0.855469 2.492188 -0.929688 2.21875 -1.066406 L 2.21875 -3.371094 C 2.429688 -3.550781 2.746094 -3.773438 3.074219 -3.773438 Z M 3.074219 -3.773438 "/></g></g></g><g fill="#ffffff" fill-opacity="1"><g transform="translate(136.798075, 61.770618)"><g><path d="M 2.851562 0 L 2.84375 -0.855469 C 2.714844 -0.917969 2.578125 -0.960938 2.378906 -1.003906 L 2.378906 -3.136719 C 2.558594 -3.371094 2.917969 -3.644531 3.285156 -3.644531 C 3.929688 -3.644531 4.140625 -3.277344 4.140625 -2.746094 L 4.140625 -1.003906 C 3.953125 -0.960938 3.804688 -0.910156 3.667969 -0.855469 L 3.65625 0 L 6.289062 0 L 6.257812 -0.855469 C 6.109375 -0.917969 5.738281 -0.984375 5.496094 -1.003906 L 5.496094 -3.03125 C 5.496094 -4.289062 4.703125 -4.765625 3.773438 -4.765625 C 3.203125 -4.765625 2.664062 -4.375 2.378906 -4.035156 L 2.378906 -6.722656 L 2.453125 -7.777344 L 0.304688 -7.628906 C 0.273438 -7.523438 0.285156 -7.441406 0.285156 -7.34375 C 0.304688 -6.964844 0.613281 -6.6875 1.023438 -6.6875 L 1.023438 -1.003906 C 0.78125 -0.984375 0.414062 -0.917969 0.265625 -0.855469 L 0.234375 0 Z M 2.851562 0 "/></g></g></g><g fill="#ffffff" fill-opacity="1"><g transform="translate(143.291613, 61.770618)"><g><path d="M 2.769531 0.125 C 4.269531 0.125 5.359375 -0.941406 5.359375 -2.378906 C 5.359375 -3.699219 4.394531 -4.765625 2.851562 -4.765625 C 1.34375 -4.765625 0.253906 -3.71875 0.253906 -2.273438 C 0.253906 -0.917969 1.238281 0.125 2.769531 0.125 Z M 2.8125 -0.824219 C 2.207031 -0.824219 1.796875 -1.394531 1.796875 -2.347656 C 1.796875 -3.371094 2.242188 -3.816406 2.820312 -3.816406 C 3.414062 -3.816406 3.867188 -3.328125 3.867188 -2.347656 C 3.867188 -1.394531 3.414062 -0.824219 2.8125 -0.824219 Z M 2.8125 -0.824219 "/></g></g></g><g fill="#ffffff" fill-opacity="1"><g transform="translate(148.940462, 61.770618)"><g><path d="M 2.851562 0 L 2.84375 -0.855469 C 2.714844 -0.917969 2.578125 -0.960938 2.378906 -1.003906 L 2.378906 -3.136719 C 2.597656 -3.359375 2.875 -3.644531 3.359375 -3.644531 C 3.984375 -3.644531 4.140625 -3.203125 4.140625 -2.820312 L 4.140625 -1.003906 C 3.941406 -0.960938 3.804688 -0.910156 3.667969 -0.855469 L 3.65625 0 L 6.289062 0 L 6.257812 -0.855469 C 6.109375 -0.917969 5.738281 -0.984375 5.496094 -1.003906 L 5.496094 -3.03125 C 5.496094 -4.214844 4.820312 -4.765625 3.804688 -4.765625 C 3.179688 -4.765625 2.632812 -4.375 2.378906 -4.027344 L 2.378906 -4.679688 L 0.304688 -4.535156 C 0.285156 -4.4375 0.285156 -4.355469 0.285156 -4.257812 C 0.296875 -3.941406 0.464844 -3.699219 0.78125 -3.636719 C 0.835938 -3.613281 0.960938 -3.605469 1.023438 -3.605469 L 1.023438 -1.003906 C 0.78125 -0.984375 0.414062 -0.917969 0.265625 -0.855469 L 0.234375 0 Z M 2.851562 0 "/></g></g></g><g fill="#ffffff" fill-opacity="1"><g transform="translate(155.433999, 61.770618)"><g><path d="M 2.8125 0.09375 C 3.550781 0.09375 4.015625 0 4.554688 -0.445312 L 4.46875 -1.308594 C 3.953125 -0.972656 3.550781 -0.824219 3.066406 -0.824219 C 2.335938 -0.824219 1.933594 -1.300781 1.859375 -2.113281 L 4.871094 -2.113281 C 4.902344 -2.3125 4.925781 -2.503906 4.925781 -2.683594 C 4.925781 -4.175781 3.773438 -4.765625 2.789062 -4.765625 C 1.257812 -4.765625 0.316406 -3.792969 0.316406 -2.335938 C 0.316406 -0.824219 1.425781 0.09375 2.8125 0.09375 Z M 1.871094 -2.84375 C 1.964844 -3.496094 2.28125 -3.816406 2.789062 -3.816406 C 3.222656 -3.816406 3.550781 -3.457031 3.570312 -2.90625 C 3.117188 -2.894531 2.421875 -2.863281 1.871094 -2.84375 Z M 1.871094 -2.84375 "/></g></g></g><g fill="#ffffff" fill-opacity="1"><g transform="translate(160.618276, 61.770618)"><g/></g></g><g fill="#ffffff" fill-opacity="1"><g transform="translate(163.036195, 61.770618)"><g><path d="M 2.851562 0 L 2.84375 -0.855469 C 2.714844 -0.917969 2.578125 -0.960938 2.378906 -1.003906 L 2.378906 -3.136719 C 2.597656 -3.359375 2.875 -3.644531 3.359375 -3.644531 C 3.984375 -3.644531 4.140625 -3.203125 4.140625 -2.820312 L 4.140625 -1.003906 C 3.941406 -0.960938 3.804688 -0.910156 3.667969 -0.855469 L 3.65625 0 L 6.289062 0 L 6.257812 -0.855469 C 6.109375 -0.917969 5.738281 -0.984375 5.496094 -1.003906 L 5.496094 -3.03125 C 5.496094 -4.214844 4.820312 -4.765625 3.804688 -4.765625 C 3.179688 -4.765625 2.632812 -4.375 2.378906 -4.027344 L 2.378906 -4.679688 L 0.304688 -4.535156 C 0.285156 -4.4375 0.285156 -4.355469 0.285156 -4.257812 C 0.296875 -3.941406 0.464844 -3.699219 0.78125 -3.636719 C 0.835938 -3.613281 0.960938 -3.605469 1.023438 -3.605469 L 1.023438 -1.003906 C 0.78125 -0.984375 0.414062 -0.917969 0.265625 -0.855469 L 0.234375 0 Z M 2.851562 0 "/></g></g></g><g fill="#ffffff" fill-opacity="1"><g transform="translate(169.529732, 61.770618)"><g><path d="M 4.101562 -0.148438 C 4.332031 0.0859375 4.554688 0.136719 4.925781 0.136719 C 4.964844 0.136719 5.019531 0.136719 5.0625 0.136719 C 5.453125 0.125 5.886719 -0.0117188 5.886719 -0.0117188 L 5.886719 -0.8125 L 5.144531 -0.992188 C 5.144531 -0.992188 5.09375 -1.152344 5.09375 -1.300781 L 5.09375 -4.679688 L 5.074219 -4.679688 L 4.5 -4.660156 L 3.316406 -4.640625 L 3.136719 -4.640625 L 3.085938 -3.792969 C 3.246094 -3.730469 3.476562 -3.667969 3.75 -3.636719 L 3.75 -1.417969 C 3.53125 -1.164062 3.222656 -0.960938 2.894531 -0.960938 C 2.273438 -0.960938 2.0625 -1.488281 2.0625 -1.871094 L 2.0625 -3.644531 L 2.125 -4.703125 L -0.0195312 -4.542969 C -0.0429688 -4.449219 -0.0429688 -4.363281 -0.0429688 -4.269531 C -0.0195312 -3.890625 0.296875 -3.613281 0.707031 -3.613281 L 0.707031 -1.636719 C 0.707031 -0.378906 1.523438 0.09375 2.453125 0.09375 C 2.992188 0.09375 3.5625 -0.222656 3.847656 -0.558594 C 3.898438 -0.402344 3.972656 -0.253906 4.101562 -0.148438 Z M 4.101562 -0.148438 "/></g></g></g><g fill="#ffffff" fill-opacity="1"><g transform="translate(175.727635, 61.770618)"><g><path d="M 5.738281 0 L 5.726562 -0.855469 C 5.601562 -0.917969 5.453125 -0.960938 5.253906 -1.003906 L 5.253906 -3.03125 C 5.253906 -3.128906 5.242188 -3.222656 5.242188 -3.316406 C 5.453125 -3.539062 5.769531 -3.699219 6.035156 -3.699219 C 6.667969 -3.699219 6.773438 -3.253906 6.773438 -2.875 L 6.773438 -1.003906 C 6.582031 -0.949219 6.425781 -0.917969 6.296875 -0.855469 L 6.289062 0 L 8.917969 0 L 8.898438 -0.855469 C 8.738281 -0.917969 8.371094 -0.984375 8.125 -1.003906 L 8.125 -3.03125 C 8.125 -4.300781 7.398438 -4.765625 6.476562 -4.765625 C 5.800781 -4.765625 5.335938 -4.289062 5.09375 -3.953125 C 4.859375 -4.535156 4.363281 -4.765625 3.710938 -4.765625 C 3.085938 -4.765625 2.621094 -4.34375 2.378906 -4.046875 L 2.378906 -4.679688 L 0.304688 -4.535156 C 0.285156 -4.4375 0.285156 -4.355469 0.296875 -4.257812 C 0.316406 -3.941406 0.507812 -3.699219 0.8125 -3.636719 C 0.867188 -3.613281 0.960938 -3.605469 1.023438 -3.605469 L 1.023438 -1.003906 C 0.78125 -0.984375 0.414062 -0.917969 0.265625 -0.855469 L 0.234375 0 L 2.863281 0 L 2.851562 -0.855469 C 2.726562 -0.917969 2.578125 -0.960938 2.378906 -1.003906 L 2.378906 -3.246094 C 2.558594 -3.488281 2.925781 -3.699219 3.222656 -3.699219 C 3.847656 -3.699219 3.898438 -3.253906 3.898438 -2.875 L 3.898438 -1.003906 C 3.6875 -0.960938 3.550781 -0.917969 3.425781 -0.855469 L 3.414062 0 Z M 5.738281 0 "/></g></g></g><g fill="#ffffff" fill-opacity="1"><g transform="translate(184.850269, 61.770618)"><g><path d="M 0.65625 0 C 0.675781 0.0195312 0.75 0.03125 0.84375 0.03125 C 1.066406 0.03125 1.417969 -0.03125 1.667969 -0.234375 C 2.15625 0.0429688 2.578125 0.125 2.90625 0.125 C 4.28125 0.125 5.421875 -0.867188 5.421875 -2.398438 C 5.421875 -3.835938 4.523438 -4.765625 3.359375 -4.765625 C 2.832031 -4.765625 2.441406 -4.597656 2.007812 -4.257812 L 2.007812 -6.722656 L 2.082031 -7.777344 L -0.0625 -7.628906 C -0.0859375 -7.523438 -0.0859375 -7.441406 -0.0742188 -7.34375 C -0.0625 -6.964844 0.242188 -6.6875 0.65625 -6.6875 Z M 2.863281 -3.75 C 3.433594 -3.75 4.070312 -3.285156 4.070312 -2.367188 C 4.070312 -1.320312 3.371094 -0.910156 2.820312 -0.910156 C 2.515625 -0.910156 2.28125 -0.984375 2.007812 -1.128906 L 2.007812 -3.308594 C 2.1875 -3.496094 2.503906 -3.75 2.863281 -3.75 Z M 2.863281 -3.75 "/></g></g></g><g fill="#ffffff" fill-opacity="1"><g transform="translate(190.509681, 61.770618)"><g><path d="M 2.8125 0.09375 C 3.550781 0.09375 4.015625 0 4.554688 -0.445312 L 4.46875 -1.308594 C 3.953125 -0.972656 3.550781 -0.824219 3.066406 -0.824219 C 2.335938 -0.824219 1.933594 -1.300781 1.859375 -2.113281 L 4.871094 -2.113281 C 4.902344 -2.3125 4.925781 -2.503906 4.925781 -2.683594 C 4.925781 -4.175781 3.773438 -4.765625 2.789062 -4.765625 C 1.257812 -4.765625 0.316406 -3.792969 0.316406 -2.335938 C 0.316406 -0.824219 1.425781 0.09375 2.8125 0.09375 Z M 1.871094 -2.84375 C 1.964844 -3.496094 2.28125 -3.816406 2.789062 -3.816406 C 3.222656 -3.816406 3.550781 -3.457031 3.570312 -2.90625 C 3.117188 -2.894531 2.421875 -2.863281 1.871094 -2.84375 Z M 1.871094 -2.84375 "/></g></g></g><g fill="#ffffff" fill-opacity="1"><g transform="translate(195.693957, 61.770618)"><g><path d="M 3.351562 0 L 3.328125 -0.855469 C 3.171875 -0.917969 2.621094 -0.984375 2.378906 -1.003906 L 2.378906 -2.453125 C 2.386719 -2.886719 2.925781 -3.65625 3.402344 -3.75 C 3.507812 -3.425781 3.730469 -3.222656 4.089844 -3.222656 C 4.195312 -3.222656 4.394531 -3.234375 4.492188 -3.253906 L 4.609375 -4.40625 C 4.4375 -4.703125 4.015625 -4.765625 3.699219 -4.765625 C 3 -4.765625 2.546875 -4.164062 2.378906 -3.792969 L 2.378906 -4.679688 L 0.304688 -4.535156 C 0.285156 -4.429688 0.285156 -4.34375 0.285156 -4.25 C 0.304688 -3.867188 0.539062 -3.605469 1.023438 -3.605469 L 1.023438 -1.003906 C 0.78125 -0.984375 0.421875 -0.917969 0.265625 -0.855469 L 0.234375 0 Z M 3.351562 0 "/></g></g></g><g fill="#ffffff" fill-opacity="1"><g transform="translate(200.45589, 61.770618)"><g/></g></g><g fill="#ffffff" fill-opacity="1"><g transform="translate(202.873809, 61.770618)"><g><path d="M 0.917969 -1.5625 C 0.917969 -0.316406 1.46875 0.105469 2.421875 0.105469 C 2.851562 0.105469 3.296875 0 3.613281 -0.160156 L 3.53125 -1.097656 C 3.328125 -1.003906 3.097656 -0.960938 2.863281 -0.960938 C 2.472656 -0.960938 2.273438 -1.195312 2.273438 -1.660156 L 2.273438 -3.71875 L 3.519531 -3.71875 L 3.519531 -4.640625 L 2.273438 -4.640625 L 2.273438 -5.992188 L 1.277344 -5.800781 L 0.972656 -4.691406 L 0.507812 -4.640625 C 0.160156 -4.597656 0.0859375 -4.3125 0.0859375 -4.070312 C 0.0859375 -3.878906 0.125 -3.71875 0.125 -3.71875 L 0.917969 -3.71875 Z M 0.917969 -1.5625 "/></g></g></g><g fill="#ffffff" fill-opacity="1"><g transform="translate(206.991667, 61.770618)"><g><path d="M 2.769531 0.125 C 4.269531 0.125 5.359375 -0.941406 5.359375 -2.378906 C 5.359375 -3.699219 4.394531 -4.765625 2.851562 -4.765625 C 1.34375 -4.765625 0.253906 -3.71875 0.253906 -2.273438 C 0.253906 -0.917969 1.238281 0.125 2.769531 0.125 Z M 2.8125 -0.824219 C 2.207031 -0.824219 1.796875 -1.394531 1.796875 -2.347656 C 1.796875 -3.371094 2.242188 -3.816406 2.820312 -3.816406 C 3.414062 -3.816406 3.867188 -3.328125 3.867188 -2.347656 C 3.867188 -1.394531 3.414062 -0.824219 2.8125 -0.824219 Z M 2.8125 -0.824219 "/></g></g></g><g fill="#ffffff" fill-opacity="1"><g transform="translate(212.640517, 61.770618)"><g/></g></g><g fill="#ffffff" fill-opacity="1"><g transform="translate(215.058436, 61.770618)"><g><path d="M 2.777344 0.125 C 3.519531 0.125 4.046875 -0.0625 4.535156 -0.433594 L 4.449219 -1.300781 C 3.929688 -0.984375 3.519531 -0.824219 3.03125 -0.824219 C 2.28125 -0.824219 1.765625 -1.257812 1.765625 -2.347656 C 1.765625 -3.425781 2.324219 -3.824219 2.875 -3.824219 C 3.03125 -3.824219 3.203125 -3.792969 3.351562 -3.75 C 3.433594 -3.316406 3.675781 -3 4.109375 -2.992188 C 4.214844 -2.992188 4.34375 -3 4.4375 -3.023438 L 4.542969 -4.140625 C 4.257812 -4.417969 3.644531 -4.765625 2.832031 -4.765625 C 1.269531 -4.765625 0.253906 -3.792969 0.253906 -2.347656 C 0.253906 -0.824219 1.40625 0.125 2.777344 0.125 Z M 2.777344 0.125 "/></g></g></g><g fill="#ffffff" fill-opacity="1"><g transform="translate(220.14768, 61.770618)"><g><path d="M 2.769531 0.125 C 4.269531 0.125 5.359375 -0.941406 5.359375 -2.378906 C 5.359375 -3.699219 4.394531 -4.765625 2.851562 -4.765625 C 1.34375 -4.765625 0.253906 -3.71875 0.253906 -2.273438 C 0.253906 -0.917969 1.238281 0.125 2.769531 0.125 Z M 2.8125 -0.824219 C 2.207031 -0.824219 1.796875 -1.394531 1.796875 -2.347656 C 1.796875 -3.371094 2.242188 -3.816406 2.820312 -3.816406 C 3.414062 -3.816406 3.867188 -3.328125 3.867188 -2.347656 C 3.867188 -1.394531 3.414062 -0.824219 2.8125 -0.824219 Z M 2.8125 -0.824219 "/></g></g></g><g fill="#ffffff" fill-opacity="1"><g transform="translate(225.796529, 61.770618)"><g><path d="M 2.851562 0 L 2.84375 -0.855469 C 2.714844 -0.917969 2.578125 -0.960938 2.378906 -1.003906 L 2.378906 -3.136719 C 2.597656 -3.359375 2.875 -3.644531 3.359375 -3.644531 C 3.984375 -3.644531 4.140625 -3.203125 4.140625 -2.820312 L 4.140625 -1.003906 C 3.941406 -0.960938 3.804688 -0.910156 3.667969 -0.855469 L 3.65625 0 L 6.289062 0 L 6.257812 -0.855469 C 6.109375 -0.917969 5.738281 -0.984375 5.496094 -1.003906 L 5.496094 -3.03125 C 5.496094 -4.214844 4.820312 -4.765625 3.804688 -4.765625 C 3.179688 -4.765625 2.632812 -4.375 2.378906 -4.027344 L 2.378906 -4.679688 L 0.304688 -4.535156 C 0.285156 -4.4375 0.285156 -4.355469 0.285156 -4.257812 C 0.296875 -3.941406 0.464844 -3.699219 0.78125 -3.636719 C 0.835938 -3.613281 0.960938 -3.605469 1.023438 -3.605469 L 1.023438 -1.003906 C 0.78125 -0.984375 0.414062 -0.917969 0.265625 -0.855469 L 0.234375 0 Z M 2.851562 0 "/></g></g></g><g fill="#ffffff" fill-opacity="1"><g transform="translate(232.290067, 61.770618)"><g><path d="M 0.917969 -1.5625 C 0.917969 -0.316406 1.46875 0.105469 2.421875 0.105469 C 2.851562 0.105469 3.296875 0 3.613281 -0.160156 L 3.53125 -1.097656 C 3.328125 -1.003906 3.097656 -0.960938 2.863281 -0.960938 C 2.472656 -0.960938 2.273438 -1.195312 2.273438 -1.660156 L 2.273438 -3.71875 L 3.519531 -3.71875 L 3.519531 -4.640625 L 2.273438 -4.640625 L 2.273438 -5.992188 L 1.277344 -5.800781 L 0.972656 -4.691406 L 0.507812 -4.640625 C 0.160156 -4.597656 0.0859375 -4.3125 0.0859375 -4.070312 C 0.0859375 -3.878906 0.125 -3.71875 0.125 -3.71875 L 0.917969 -3.71875 Z M 0.917969 -1.5625 "/></g></g></g><g fill="#ffffff" fill-opacity="1"><g transform="translate(236.407926, 61.770618)"><g><path d="M 3.171875 -0.507812 C 3.351562 0.0625 3.867188 0.136719 4.386719 0.136719 C 4.777344 0.125 5.113281 -0.0117188 5.113281 -0.0117188 L 5.113281 -0.8125 L 4.460938 -0.992188 C 4.460938 -0.992188 4.417969 -1.121094 4.40625 -1.257812 L 4.40625 -2.925781 C 4.417969 -4.3125 3.792969 -4.765625 2.707031 -4.765625 C 1.933594 -4.765625 0.929688 -4.449219 0.527344 -4.109375 L 0.632812 -3.03125 C 0.730469 -3.023438 0.886719 -3.011719 0.984375 -3.011719 C 1.34375 -3.03125 1.691406 -3.351562 1.785156 -3.835938 C 1.914062 -3.867188 2.050781 -3.890625 2.167969 -3.890625 C 2.789062 -3.890625 3.066406 -3.550781 3.066406 -2.746094 L 3.066406 -2.460938 C 3.066406 -2.460938 2.007812 -2.453125 1.636719 -2.421875 C 0.496094 -2.335938 0.234375 -1.816406 0.234375 -1.164062 C 0.234375 -0.421875 0.75 0.125 1.523438 0.125 C 2.21875 0.125 2.789062 -0.160156 3.171875 -0.507812 Z M 3.066406 -1.089844 C 2.886719 -0.972656 2.535156 -0.75 2.175781 -0.75 C 1.808594 -0.75 1.585938 -0.898438 1.585938 -1.289062 C 1.585938 -1.53125 1.691406 -1.742188 2.386719 -1.765625 L 3.066406 -1.765625 Z M 3.066406 -1.089844 "/></g></g></g><g fill="#ffffff" fill-opacity="1"><g transform="translate(241.761139, 61.770618)"><g><path d="M 2.777344 0.125 C 3.519531 0.125 4.046875 -0.0625 4.535156 -0.433594 L 4.449219 -1.300781 C 3.929688 -0.984375 3.519531 -0.824219 3.03125 -0.824219 C 2.28125 -0.824219 1.765625 -1.257812 1.765625 -2.347656 C 1.765625 -3.425781 2.324219 -3.824219 2.875 -3.824219 C 3.03125 -3.824219 3.203125 -3.792969 3.351562 -3.75 C 3.433594 -3.316406 3.675781 -3 4.109375 -2.992188 C 4.214844 -2.992188 4.34375 -3 4.4375 -3.023438 L 4.542969 -4.140625 C 4.257812 -4.417969 3.644531 -4.765625 2.832031 -4.765625 C 1.269531 -4.765625 0.253906 -3.792969 0.253906 -2.347656 C 0.253906 -0.824219 1.40625 0.125 2.777344 0.125 Z M 2.777344 0.125 "/></g></g></g><g fill="#ffffff" fill-opacity="1"><g transform="translate(246.850384, 61.770618)"><g><path d="M 0.917969 -1.5625 C 0.917969 -0.316406 1.46875 0.105469 2.421875 0.105469 C 2.851562 0.105469 3.296875 0 3.613281 -0.160156 L 3.53125 -1.097656 C 3.328125 -1.003906 3.097656 -0.960938 2.863281 -0.960938 C 2.472656 -0.960938 2.273438 -1.195312 2.273438 -1.660156 L 2.273438 -3.71875 L 3.519531 -3.71875 L 3.519531 -4.640625 L 2.273438 -4.640625 L 2.273438 -5.992188 L 1.277344 -5.800781 L 0.972656 -4.691406 L 0.507812 -4.640625 C 0.160156 -4.597656 0.0859375 -4.3125 0.0859375 -4.070312 C 0.0859375 -3.878906 0.125 -3.71875 0.125 -3.71875 L 0.917969 -3.71875 Z M 0.917969 -1.5625 "/></g></g></g><g fill="#ffffff" fill-opacity="1"><g transform="translate(250.968243, 61.770618)"><g/></g></g><g fill="#ffffff" fill-opacity="1"><g transform="translate(253.386162, 61.770618)"><g><path d="M 3.171875 0 L 3.136719 -0.855469 C 2.980469 -0.917969 2.609375 -0.984375 2.378906 -1.003906 L 2.378906 -4.679688 L 0.304688 -4.535156 C 0.285156 -4.4375 0.285156 -4.355469 0.285156 -4.257812 C 0.296875 -3.941406 0.464844 -3.699219 0.78125 -3.636719 C 0.835938 -3.613281 0.960938 -3.605469 1.023438 -3.605469 L 1.023438 -1.003906 C 0.78125 -0.984375 0.414062 -0.917969 0.265625 -0.855469 L 0.234375 0 Z M 1.660156 -5.515625 C 2.132812 -5.515625 2.453125 -5.84375 2.453125 -6.277344 C 2.453125 -6.699219 2.144531 -7.007812 1.703125 -7.007812 C 1.226562 -7.007812 0.898438 -6.679688 0.898438 -6.234375 C 0.898438 -5.832031 1.214844 -5.515625 1.660156 -5.515625 Z M 1.660156 -5.515625 "/></g></g></g><g fill="#ffffff" fill-opacity="1"><g transform="translate(256.78603, 61.770618)"><g><path d="M 2.851562 0 L 2.84375 -0.855469 C 2.714844 -0.917969 2.578125 -0.960938 2.378906 -1.003906 L 2.378906 -3.136719 C 2.597656 -3.359375 2.875 -3.644531 3.359375 -3.644531 C 3.984375 -3.644531 4.140625 -3.203125 4.140625 -2.820312 L 4.140625 -1.003906 C 3.941406 -0.960938 3.804688 -0.910156 3.667969 -0.855469 L 3.65625 0 L 6.289062 0 L 6.257812 -0.855469 C 6.109375 -0.917969 5.738281 -0.984375 5.496094 -1.003906 L 5.496094 -3.03125 C 5.496094 -4.214844 4.820312 -4.765625 3.804688 -4.765625 C 3.179688 -4.765625 2.632812 -4.375 2.378906 -4.027344 L 2.378906 -4.679688 L 0.304688 -4.535156 C 0.285156 -4.4375 0.285156 -4.355469 0.285156 -4.257812 C 0.296875 -3.941406 0.464844 -3.699219 0.78125 -3.636719 C 0.835938 -3.613281 0.960938 -3.605469 1.023438 -3.605469 L 1.023438 -1.003906 C 0.78125 -0.984375 0.414062 -0.917969 0.265625 -0.855469 L 0.234375 0 Z M 2.851562 0 "/></g></g></g><g fill="#ffffff" fill-opacity="1"><g transform="translate(112.485882, 72.270617)"><g><path d="M 0.917969 -1.5625 C 0.917969 -0.316406 1.46875 0.105469 2.421875 0.105469 C 2.851562 0.105469 3.296875 0 3.613281 -0.160156 L 3.53125 -1.097656 C 3.328125 -1.003906 3.097656 -0.960938 2.863281 -0.960938 C 2.472656 -0.960938 2.273438 -1.195312 2.273438 -1.660156 L 2.273438 -3.71875 L 3.519531 -3.71875 L 3.519531 -4.640625 L 2.273438 -4.640625 L 2.273438 -5.992188 L 1.277344 -5.800781 L 0.972656 -4.691406 L 0.507812 -4.640625 C 0.160156 -4.597656 0.0859375 -4.3125 0.0859375 -4.070312 C 0.0859375 -3.878906 0.125 -3.71875 0.125 -3.71875 L 0.917969 -3.71875 Z M 0.917969 -1.5625 "/></g></g></g><g fill="#ffffff" fill-opacity="1"><g transform="translate(116.60374, 72.270617)"><g><path d="M 2.851562 0 L 2.84375 -0.855469 C 2.714844 -0.917969 2.578125 -0.960938 2.378906 -1.003906 L 2.378906 -3.136719 C 2.558594 -3.371094 2.917969 -3.644531 3.285156 -3.644531 C 3.929688 -3.644531 4.140625 -3.277344 4.140625 -2.746094 L 4.140625 -1.003906 C 3.953125 -0.960938 3.804688 -0.910156 3.667969 -0.855469 L 3.65625 0 L 6.289062 0 L 6.257812 -0.855469 C 6.109375 -0.917969 5.738281 -0.984375 5.496094 -1.003906 L 5.496094 -3.03125 C 5.496094 -4.289062 4.703125 -4.765625 3.773438 -4.765625 C 3.203125 -4.765625 2.664062 -4.375 2.378906 -4.035156 L 2.378906 -6.722656 L 2.453125 -7.777344 L 0.304688 -7.628906 C 0.273438 -7.523438 0.285156 -7.441406 0.285156 -7.34375 C 0.304688 -6.964844 0.613281 -6.6875 1.023438 -6.6875 L 1.023438 -1.003906 C 0.78125 -0.984375 0.414062 -0.917969 0.265625 -0.855469 L 0.234375 0 Z M 2.851562 0 "/></g></g></g><g fill="#ffffff" fill-opacity="1"><g transform="translate(123.097278, 72.270617)"><g><path d="M 2.8125 0.09375 C 3.550781 0.09375 4.015625 0 4.554688 -0.445312 L 4.46875 -1.308594 C 3.953125 -0.972656 3.550781 -0.824219 3.066406 -0.824219 C 2.335938 -0.824219 1.933594 -1.300781 1.859375 -2.113281 L 4.871094 -2.113281 C 4.902344 -2.3125 4.925781 -2.503906 4.925781 -2.683594 C 4.925781 -4.175781 3.773438 -4.765625 2.789062 -4.765625 C 1.257812 -4.765625 0.316406 -3.792969 0.316406 -2.335938 C 0.316406 -0.824219 1.425781 0.09375 2.8125 0.09375 Z M 1.871094 -2.84375 C 1.964844 -3.496094 2.28125 -3.816406 2.789062 -3.816406 C 3.222656 -3.816406 3.550781 -3.457031 3.570312 -2.90625 C 3.117188 -2.894531 2.421875 -2.863281 1.871094 -2.84375 Z M 1.871094 -2.84375 "/></g></g></g><g fill="#ffffff" fill-opacity="1"><g transform="translate(128.281554, 72.270617)"><g/></g></g><g fill="#ffffff" fill-opacity="1"><g transform="translate(130.699473, 72.270617)"><g><path d="M 2.8125 0.09375 C 3.550781 0.09375 4.015625 0 4.554688 -0.445312 L 4.46875 -1.308594 C 3.953125 -0.972656 3.550781 -0.824219 3.066406 -0.824219 C 2.335938 -0.824219 1.933594 -1.300781 1.859375 -2.113281 L 4.871094 -2.113281 C 4.902344 -2.3125 4.925781 -2.503906 4.925781 -2.683594 C 4.925781 -4.175781 3.773438 -4.765625 2.789062 -4.765625 C 1.257812 -4.765625 0.316406 -3.792969 0.316406 -2.335938 C 0.316406 -0.824219 1.425781 0.09375 2.8125 0.09375 Z M 1.871094 -2.84375 C 1.964844 -3.496094 2.28125 -3.816406 2.789062 -3.816406 C 3.222656 -3.816406 3.550781 -3.457031 3.570312 -2.90625 C 3.117188 -2.894531 2.421875 -2.863281 1.871094 -2.84375 Z M 1.871094 -2.84375 "/></g></g></g><g fill="#ffffff" fill-opacity="1"><g transform="translate(135.883749, 72.270617)"><g><path d="M 3.308594 -3.78125 C 3.457031 -3.71875 3.699219 -3.667969 3.898438 -3.636719 L 2.957031 -1.363281 L 1.964844 -3.636719 C 2.1875 -3.675781 2.429688 -3.730469 2.566406 -3.78125 L 2.609375 -4.640625 L -0.160156 -4.640625 C -0.191406 -4.597656 -0.222656 -4.480469 -0.222656 -4.332031 C -0.222656 -4.089844 -0.148438 -3.792969 0.125 -3.71875 L 0.539062 -3.636719 L 2.3125 0.09375 L 3.277344 0.0117188 L 5 -3.636719 C 5.199219 -3.65625 5.472656 -3.730469 5.589844 -3.78125 L 5.621094 -4.640625 L 3.339844 -4.640625 Z M 3.308594 -3.78125 "/></g></g></g><g fill="#ffffff" fill-opacity="1"><g transform="translate(141.532599, 72.270617)"><g><path d="M 2.8125 0.09375 C 3.550781 0.09375 4.015625 0 4.554688 -0.445312 L 4.46875 -1.308594 C 3.953125 -0.972656 3.550781 -0.824219 3.066406 -0.824219 C 2.335938 -0.824219 1.933594 -1.300781 1.859375 -2.113281 L 4.871094 -2.113281 C 4.902344 -2.3125 4.925781 -2.503906 4.925781 -2.683594 C 4.925781 -4.175781 3.773438 -4.765625 2.789062 -4.765625 C 1.257812 -4.765625 0.316406 -3.792969 0.316406 -2.335938 C 0.316406 -0.824219 1.425781 0.09375 2.8125 0.09375 Z M 1.871094 -2.84375 C 1.964844 -3.496094 2.28125 -3.816406 2.789062 -3.816406 C 3.222656 -3.816406 3.550781 -3.457031 3.570312 -2.90625 C 3.117188 -2.894531 2.421875 -2.863281 1.871094 -2.84375 Z M 1.871094 -2.84375 "/></g></g></g><g fill="#ffffff" fill-opacity="1"><g transform="translate(146.716875, 72.270617)"><g><path d="M 2.851562 0 L 2.84375 -0.855469 C 2.714844 -0.917969 2.578125 -0.960938 2.378906 -1.003906 L 2.378906 -3.136719 C 2.597656 -3.359375 2.875 -3.644531 3.359375 -3.644531 C 3.984375 -3.644531 4.140625 -3.203125 4.140625 -2.820312 L 4.140625 -1.003906 C 3.941406 -0.960938 3.804688 -0.910156 3.667969 -0.855469 L 3.65625 0 L 6.289062 0 L 6.257812 -0.855469 C 6.109375 -0.917969 5.738281 -0.984375 5.496094 -1.003906 L 5.496094 -3.03125 C 5.496094 -4.214844 4.820312 -4.765625 3.804688 -4.765625 C 3.179688 -4.765625 2.632812 -4.375 2.378906 -4.027344 L 2.378906 -4.679688 L 0.304688 -4.535156 C 0.285156 -4.4375 0.285156 -4.355469 0.285156 -4.257812 C 0.296875 -3.941406 0.464844 -3.699219 0.78125 -3.636719 C 0.835938 -3.613281 0.960938 -3.605469 1.023438 -3.605469 L 1.023438 -1.003906 C 0.78125 -0.984375 0.414062 -0.917969 0.265625 -0.855469 L 0.234375 0 Z M 2.851562 0 "/></g></g></g><g fill="#ffffff" fill-opacity="1"><g transform="translate(153.210412, 72.270617)"><g><path d="M 0.917969 -1.5625 C 0.917969 -0.316406 1.46875 0.105469 2.421875 0.105469 C 2.851562 0.105469 3.296875 0 3.613281 -0.160156 L 3.53125 -1.097656 C 3.328125 -1.003906 3.097656 -0.960938 2.863281 -0.960938 C 2.472656 -0.960938 2.273438 -1.195312 2.273438 -1.660156 L 2.273438 -3.71875 L 3.519531 -3.71875 L 3.519531 -4.640625 L 2.273438 -4.640625 L 2.273438 -5.992188 L 1.277344 -5.800781 L 0.972656 -4.691406 L 0.507812 -4.640625 C 0.160156 -4.597656 0.0859375 -4.3125 0.0859375 -4.070312 C 0.0859375 -3.878906 0.125 -3.71875 0.125 -3.71875 L 0.917969 -3.71875 Z M 0.917969 -1.5625 "/></g></g></g><g fill="#ffffff" fill-opacity="1"><g transform="translate(157.328271, 72.270617)"><g/></g></g><g fill="#ffffff" fill-opacity="1"><g transform="translate(159.74619, 72.270617)"><g><path d="M 2.769531 0.125 C 4.269531 0.125 5.359375 -0.941406 5.359375 -2.378906 C 5.359375 -3.699219 4.394531 -4.765625 2.851562 -4.765625 C 1.34375 -4.765625 0.253906 -3.71875 0.253906 -2.273438 C 0.253906 -0.917969 1.238281 0.125 2.769531 0.125 Z M 2.8125 -0.824219 C 2.207031 -0.824219 1.796875 -1.394531 1.796875 -2.347656 C 1.796875 -3.371094 2.242188 -3.816406 2.820312 -3.816406 C 3.414062 -3.816406 3.867188 -3.328125 3.867188 -2.347656 C 3.867188 -1.394531 3.414062 -0.824219 2.8125 -0.824219 Z M 2.8125 -0.824219 "/></g></g></g><g fill="#ffffff" fill-opacity="1"><g transform="translate(165.395039, 72.270617)"><g><path d="M 0.8125 -4.640625 C 0.371094 -4.640625 0.273438 -4.320312 0.273438 -4.070312 C 0.273438 -3.898438 0.316406 -3.75 0.316406 -3.75 C 0.316406 -3.75 0.296875 -3.742188 0.378906 -3.742188 L 1.109375 -3.71875 L 1.109375 -1.003906 C 0.867188 -0.984375 0.496094 -0.917969 0.339844 -0.855469 L 0.316406 0 L 3.433594 0 L 3.414062 -0.855469 C 3.253906 -0.917969 2.695312 -0.984375 2.453125 -1.003906 L 2.453125 -3.71875 L 3.5625 -3.71875 L 3.5625 -4.640625 L 2.453125 -4.640625 L 2.453125 -5.082031 C 2.453125 -5.570312 2.460938 -6.878906 3.191406 -6.878906 C 3.316406 -6.542969 3.59375 -6.328125 3.972656 -6.320312 C 4.070312 -6.320312 4.140625 -6.328125 4.238281 -6.339844 L 4.332031 -7.40625 C 4.214844 -7.546875 3.6875 -7.726562 3.339844 -7.726562 C 1.921875 -7.726562 1.109375 -6.878906 1.109375 -5.292969 L 1.109375 -4.640625 Z M 0.8125 -4.640625 "/></g></g></g><g fill="#ffffff" fill-opacity="1"><g transform="translate(169.396752, 72.270617)"><g/></g></g><g fill="#ffffff" fill-opacity="1"><g transform="translate(171.814671, 72.270617)"><g><path d="M 2.777344 0.125 C 3.519531 0.125 4.046875 -0.0625 4.535156 -0.433594 L 4.449219 -1.300781 C 3.929688 -0.984375 3.519531 -0.824219 3.03125 -0.824219 C 2.28125 -0.824219 1.765625 -1.257812 1.765625 -2.347656 C 1.765625 -3.425781 2.324219 -3.824219 2.875 -3.824219 C 3.03125 -3.824219 3.203125 -3.792969 3.351562 -3.75 C 3.433594 -3.316406 3.675781 -3 4.109375 -2.992188 C 4.214844 -2.992188 4.34375 -3 4.4375 -3.023438 L 4.542969 -4.140625 C 4.257812 -4.417969 3.644531 -4.765625 2.832031 -4.765625 C 1.269531 -4.765625 0.253906 -3.792969 0.253906 -2.347656 C 0.253906 -0.824219 1.40625 0.125 2.777344 0.125 Z M 2.777344 0.125 "/></g></g></g><g fill="#ffffff" fill-opacity="1"><g transform="translate(176.903916, 72.270617)"><g><path d="M 3.496094 -3.78125 C 3.644531 -3.71875 3.890625 -3.667969 4.089844 -3.636719 L 2.992188 -1.035156 L 2.199219 -3.636719 C 2.398438 -3.667969 2.632812 -3.730469 2.757812 -3.78125 L 2.800781 -4.640625 L 0.03125 -4.640625 C 0 -4.597656 -0.03125 -4.480469 -0.03125 -4.332031 C -0.03125 -4.089844 0.0429688 -3.792969 0.316406 -3.71875 L 0.730469 -3.636719 L 2.027344 -0.117188 L 2.621094 -0.199219 L 2.535156 0 C 2.09375 0.984375 1.734375 1.183594 1.46875 1.289062 C 1.351562 1.121094 1.183594 1.058594 1.015625 1.058594 C 0.792969 1.058594 0.582031 1.164062 0.476562 1.257812 L 1.003906 2.546875 C 2.082031 2.410156 2.746094 1.710938 3.476562 0.125 L 5.210938 -3.625 L 5.210938 -3.636719 C 5.410156 -3.65625 5.664062 -3.730469 5.78125 -3.78125 L 5.8125 -4.640625 L 3.53125 -4.640625 Z M 3.496094 -3.78125 "/></g></g></g><g fill="#ffffff" fill-opacity="1"><g transform="translate(182.837849, 72.270617)"><g><path d="M 0.65625 0 C 0.675781 0.0195312 0.75 0.03125 0.84375 0.03125 C 1.066406 0.03125 1.417969 -0.03125 1.667969 -0.234375 C 2.15625 0.0429688 2.578125 0.125 2.90625 0.125 C 4.28125 0.125 5.421875 -0.867188 5.421875 -2.398438 C 5.421875 -3.835938 4.523438 -4.765625 3.359375 -4.765625 C 2.832031 -4.765625 2.441406 -4.597656 2.007812 -4.257812 L 2.007812 -6.722656 L 2.082031 -7.777344 L -0.0625 -7.628906 C -0.0859375 -7.523438 -0.0859375 -7.441406 -0.0742188 -7.34375 C -0.0625 -6.964844 0.242188 -6.6875 0.65625 -6.6875 Z M 2.863281 -3.75 C 3.433594 -3.75 4.070312 -3.285156 4.070312 -2.367188 C 4.070312 -1.320312 3.371094 -0.910156 2.820312 -0.910156 C 2.515625 -0.910156 2.28125 -0.984375 2.007812 -1.128906 L 2.007812 -3.308594 C 2.1875 -3.496094 2.503906 -3.75 2.863281 -3.75 Z M 2.863281 -3.75 "/></g></g></g><g fill="#ffffff" fill-opacity="1"><g transform="translate(188.497261, 72.270617)"><g><path d="M 2.8125 0.09375 C 3.550781 0.09375 4.015625 0 4.554688 -0.445312 L 4.46875 -1.308594 C 3.953125 -0.972656 3.550781 -0.824219 3.066406 -0.824219 C 2.335938 -0.824219 1.933594 -1.300781 1.859375 -2.113281 L 4.871094 -2.113281 C 4.902344 -2.3125 4.925781 -2.503906 4.925781 -2.683594 C 4.925781 -4.175781 3.773438 -4.765625 2.789062 -4.765625 C 1.257812 -4.765625 0.316406 -3.792969 0.316406 -2.335938 C 0.316406 -0.824219 1.425781 0.09375 2.8125 0.09375 Z M 1.871094 -2.84375 C 1.964844 -3.496094 2.28125 -3.816406 2.789062 -3.816406 C 3.222656 -3.816406 3.550781 -3.457031 3.570312 -2.90625 C 3.117188 -2.894531 2.421875 -2.863281 1.871094 -2.84375 Z M 1.871094 -2.84375 "/></g></g></g><g fill="#ffffff" fill-opacity="1"><g transform="translate(193.681537, 72.270617)"><g><path d="M 3.351562 0 L 3.328125 -0.855469 C 3.171875 -0.917969 2.621094 -0.984375 2.378906 -1.003906 L 2.378906 -2.453125 C 2.386719 -2.886719 2.925781 -3.65625 3.402344 -3.75 C 3.507812 -3.425781 3.730469 -3.222656 4.089844 -3.222656 C 4.195312 -3.222656 4.394531 -3.234375 4.492188 -3.253906 L 4.609375 -4.40625 C 4.4375 -4.703125 4.015625 -4.765625 3.699219 -4.765625 C 3 -4.765625 2.546875 -4.164062 2.378906 -3.792969 L 2.378906 -4.679688 L 0.304688 -4.535156 C 0.285156 -4.429688 0.285156 -4.34375 0.285156 -4.25 C 0.304688 -3.867188 0.539062 -3.605469 1.023438 -3.605469 L 1.023438 -1.003906 C 0.78125 -0.984375 0.421875 -0.917969 0.265625 -0.855469 L 0.234375 0 Z M 3.351562 0 "/></g></g></g><g fill="#ffffff" fill-opacity="1"><g transform="translate(198.443469, 72.270617)"><g><path d="M 3.277344 -1.933594 L 3.277344 -2.980469 L 0.359375 -2.980469 L 0.359375 -1.933594 Z M 3.277344 -1.933594 "/></g></g></g><g fill="#ffffff" fill-opacity="1"><g transform="translate(202.086192, 72.270617)"><g><path d="M 0.65625 0 C 0.675781 0.0195312 0.75 0.03125 0.84375 0.03125 C 1.066406 0.03125 1.417969 -0.03125 1.667969 -0.234375 C 2.15625 0.0429688 2.578125 0.125 2.90625 0.125 C 4.28125 0.125 5.421875 -0.867188 5.421875 -2.398438 C 5.421875 -3.835938 4.523438 -4.765625 3.359375 -4.765625 C 2.832031 -4.765625 2.441406 -4.597656 2.007812 -4.257812 L 2.007812 -6.722656 L 2.082031 -7.777344 L -0.0625 -7.628906 C -0.0859375 -7.523438 -0.0859375 -7.441406 -0.0742188 -7.34375 C -0.0625 -6.964844 0.242188 -6.6875 0.65625 -6.6875 Z M 2.863281 -3.75 C 3.433594 -3.75 4.070312 -3.285156 4.070312 -2.367188 C 4.070312 -1.320312 3.371094 -0.910156 2.820312 -0.910156 C 2.515625 -0.910156 2.28125 -0.984375 2.007812 -1.128906 L 2.007812 -3.308594 C 2.1875 -3.496094 2.503906 -3.75 2.863281 -3.75 Z M 2.863281 -3.75 "/></g></g></g><g fill="#ffffff" fill-opacity="1"><g transform="translate(207.745604, 72.270617)"><g><path d="M 4.101562 -0.148438 C 4.332031 0.0859375 4.554688 0.136719 4.925781 0.136719 C 4.964844 0.136719 5.019531 0.136719 5.0625 0.136719 C 5.453125 0.125 5.886719 -0.0117188 5.886719 -0.0117188 L 5.886719 -0.8125 L 5.144531 -0.992188 C 5.144531 -0.992188 5.09375 -1.152344 5.09375 -1.300781 L 5.09375 -4.679688 L 5.074219 -4.679688 L 4.5 -4.660156 L 3.316406 -4.640625 L 3.136719 -4.640625 L 3.085938 -3.792969 C 3.246094 -3.730469 3.476562 -3.667969 3.75 -3.636719 L 3.75 -1.417969 C 3.53125 -1.164062 3.222656 -0.960938 2.894531 -0.960938 C 2.273438 -0.960938 2.0625 -1.488281 2.0625 -1.871094 L 2.0625 -3.644531 L 2.125 -4.703125 L -0.0195312 -4.542969 C -0.0429688 -4.449219 -0.0429688 -4.363281 -0.0429688 -4.269531 C -0.0195312 -3.890625 0.296875 -3.613281 0.707031 -3.613281 L 0.707031 -1.636719 C 0.707031 -0.378906 1.523438 0.09375 2.453125 0.09375 C 2.992188 0.09375 3.5625 -0.222656 3.847656 -0.558594 C 3.898438 -0.402344 3.972656 -0.253906 4.101562 -0.148438 Z M 4.101562 -0.148438 "/></g></g></g><g fill="#ffffff" fill-opacity="1"><g transform="translate(213.943506, 72.270617)"><g><path d="M 3.171875 0 L 3.136719 -0.855469 C 2.980469 -0.917969 2.609375 -0.984375 2.378906 -1.003906 L 2.378906 -6.722656 L 2.453125 -7.777344 L 0.316406 -7.628906 C 0.296875 -7.523438 0.296875 -7.441406 0.304688 -7.34375 C 0.316406 -6.964844 0.613281 -6.6875 1.023438 -6.6875 L 1.023438 -1.003906 C 0.78125 -0.984375 0.414062 -0.917969 0.265625 -0.855469 L 0.234375 0 Z M 3.171875 0 "/></g></g></g><g fill="#ffffff" fill-opacity="1"><g transform="translate(217.417292, 72.270617)"><g><path d="M 3.171875 0 L 3.136719 -0.855469 C 2.980469 -0.917969 2.609375 -0.984375 2.378906 -1.003906 L 2.378906 -6.722656 L 2.453125 -7.777344 L 0.316406 -7.628906 C 0.296875 -7.523438 0.296875 -7.441406 0.304688 -7.34375 C 0.316406 -6.964844 0.613281 -6.6875 1.023438 -6.6875 L 1.023438 -1.003906 C 0.78125 -0.984375 0.414062 -0.917969 0.265625 -0.855469 L 0.234375 0 Z M 3.171875 0 "/></g></g></g><g fill="#ffffff" fill-opacity="1"><g transform="translate(220.891077, 72.270617)"><g><path d="M 3.496094 -3.78125 C 3.644531 -3.71875 3.890625 -3.667969 4.089844 -3.636719 L 2.992188 -1.035156 L 2.199219 -3.636719 C 2.398438 -3.667969 2.632812 -3.730469 2.757812 -3.78125 L 2.800781 -4.640625 L 0.03125 -4.640625 C 0 -4.597656 -0.03125 -4.480469 -0.03125 -4.332031 C -0.03125 -4.089844 0.0429688 -3.792969 0.316406 -3.71875 L 0.730469 -3.636719 L 2.027344 -0.117188 L 2.621094 -0.199219 L 2.535156 0 C 2.09375 0.984375 1.734375 1.183594 1.46875 1.289062 C 1.351562 1.121094 1.183594 1.058594 1.015625 1.058594 C 0.792969 1.058594 0.582031 1.164062 0.476562 1.257812 L 1.003906 2.546875 C 2.082031 2.410156 2.746094 1.710938 3.476562 0.125 L 5.210938 -3.625 L 5.210938 -3.636719 C 5.410156 -3.65625 5.664062 -3.730469 5.78125 -3.78125 L 5.8125 -4.640625 L 3.53125 -4.640625 Z M 3.496094 -3.78125 "/></g></g></g><g fill="#ffffff" fill-opacity="1"><g transform="translate(226.82501, 72.270617)"><g><path d="M 3.171875 0 L 3.136719 -0.855469 C 2.980469 -0.917969 2.609375 -0.984375 2.378906 -1.003906 L 2.378906 -4.679688 L 0.304688 -4.535156 C 0.285156 -4.4375 0.285156 -4.355469 0.285156 -4.257812 C 0.296875 -3.941406 0.464844 -3.699219 0.78125 -3.636719 C 0.835938 -3.613281 0.960938 -3.605469 1.023438 -3.605469 L 1.023438 -1.003906 C 0.78125 -0.984375 0.414062 -0.917969 0.265625 -0.855469 L 0.234375 0 Z M 1.660156 -5.515625 C 2.132812 -5.515625 2.453125 -5.84375 2.453125 -6.277344 C 2.453125 -6.699219 2.144531 -7.007812 1.703125 -7.007812 C 1.226562 -7.007812 0.898438 -6.679688 0.898438 -6.234375 C 0.898438 -5.832031 1.214844 -5.515625 1.660156 -5.515625 Z M 1.660156 -5.515625 "/></g></g></g><g fill="#ffffff" fill-opacity="1"><g transform="translate(230.224878, 72.270617)"><g><path d="M 2.851562 0 L 2.84375 -0.855469 C 2.714844 -0.917969 2.578125 -0.960938 2.378906 -1.003906 L 2.378906 -3.136719 C 2.597656 -3.359375 2.875 -3.644531 3.359375 -3.644531 C 3.984375 -3.644531 4.140625 -3.203125 4.140625 -2.820312 L 4.140625 -1.003906 C 3.941406 -0.960938 3.804688 -0.910156 3.667969 -0.855469 L 3.65625 0 L 6.289062 0 L 6.257812 -0.855469 C 6.109375 -0.917969 5.738281 -0.984375 5.496094 -1.003906 L 5.496094 -3.03125 C 5.496094 -4.214844 4.820312 -4.765625 3.804688 -4.765625 C 3.179688 -4.765625 2.632812 -4.375 2.378906 -4.027344 L 2.378906 -4.679688 L 0.304688 -4.535156 C 0.285156 -4.4375 0.285156 -4.355469 0.285156 -4.257812 C 0.296875 -3.941406 0.464844 -3.699219 0.78125 -3.636719 C 0.835938 -3.613281 0.960938 -3.605469 1.023438 -3.605469 L 1.023438 -1.003906 C 0.78125 -0.984375 0.414062 -0.917969 0.265625 -0.855469 L 0.234375 0 Z M 2.851562 0 "/></g></g></g><g fill="#ffffff" fill-opacity="1"><g transform="translate(236.718415, 72.270617)"><g><path d="M 0.476562 2.0625 C 0.941406 2.367188 2.132812 2.609375 3.105469 2.609375 C 4.3125 2.609375 5.472656 2.207031 5.472656 1.046875 C 5.472656 0.0195312 4.734375 -0.371094 3.359375 -0.570312 L 1.574219 -0.804688 C 1.5 -0.824219 1.542969 -0.972656 1.617188 -1.128906 C 1.667969 -1.203125 1.734375 -1.289062 1.808594 -1.351562 C 2.0625 -1.277344 2.347656 -1.246094 2.664062 -1.246094 C 4.058594 -1.246094 4.957031 -1.996094 4.957031 -3.042969 C 4.957031 -3.464844 4.785156 -3.855469 4.492188 -4.152344 C 4.660156 -4.25 4.851562 -4.320312 5.007812 -4.34375 C 5.21875 -3.835938 5.390625 -3.636719 5.96875 -3.636719 L 6.109375 -4.777344 C 5.832031 -4.964844 5.515625 -5.039062 5.210938 -5.039062 C 4.671875 -5.039062 4.140625 -4.808594 3.835938 -4.566406 C 3.519531 -4.691406 3.136719 -4.765625 2.714844 -4.765625 C 1.308594 -4.765625 0.414062 -3.996094 0.414062 -2.949219 C 0.414062 -2.410156 0.664062 -1.964844 1.109375 -1.660156 C 0.550781 -1.351562 0.296875 -1.046875 0.296875 -0.632812 C 0.296875 -0.191406 0.65625 0.136719 1.40625 0.253906 L 3.210938 0.539062 C 3.792969 0.589844 4.121094 0.769531 4.121094 1.097656 C 4.121094 1.59375 3.402344 1.667969 2.863281 1.667969 C 2.492188 1.667969 2.082031 1.617188 1.710938 1.542969 C 1.617188 0.984375 1.195312 0.835938 0.707031 0.835938 Z M 2.695312 -2.070312 C 2.21875 -2.070312 1.859375 -2.378906 1.859375 -2.992188 C 1.859375 -3.675781 2.21875 -3.929688 2.695312 -3.929688 C 3.160156 -3.929688 3.507812 -3.644531 3.507812 -3 C 3.507812 -2.386719 3.160156 -2.070312 2.695312 -2.070312 Z M 2.695312 -2.070312 "/></g></g></g><g fill="#000000" fill-opacity="1"><g transform="translate(242.868687, 72.270617)"><g/></g></g></svg>